<svg xmlns="http://www.w3.org/2000/svg" viewBox="0 0 260 160"><ellipse cx="130" cy="136" rx="78" ry="8" fill="#000" opacity=".15"/><g transform="translate(18 16) scale(.72)"><path d="M60 79c5-31 31-49 70-49s65 18 70 49H60z" fill="#efbe5a"/><rect x="58" y="83" width="144" height="12" rx="6" fill="#652f19"/><rect x="56" y="96" width="148" height="14" rx="7" fill="#f3c842"/><rect x="52" y="110" width="156" height="21" rx="10.5" fill="#2f9b4b"/><rect x="64" y="128" width="132" height="11" rx="5.5" fill="#d7a14a"/></g><g transform="translate(86 6) scale(.72)"><path d="M60 79c5-31 31-49 70-49s65 18 70 49H60z" fill="#efbe5a"/><rect x="58" y="83" width="144" height="12" rx="6" fill="#652f19"/><rect x="56" y="96" width="148" height="14" rx="7" fill="#f3c842"/><rect x="52" y="110" width="156" height="21" rx="10.5" fill="#2f9b4b"/><rect x="64" y="128" width="132" height="11" rx="5.5" fill="#d7a14a"/></g><g transform="translate(154 16) scale(.72)"><path d="M60 79c5-31 31-49 70-49s65 18 70 49H60z" fill="#efbe5a"/><rect x="58" y="83" width="144" height="12" rx="6" fill="#652f19"/><rect x="56" y="96" width="148" height="14" rx="7" fill="#f3c842"/><rect x="52" y="110" width="156" height="21" rx="10.5" fill="#2f9b4b"/><rect x="64" y="128" width="132" height="11" rx="5.5" fill="#d7a14a"/></g></svg>