<svg xmlns="http://www.w3.org/2000/svg" viewBox="0 0 320 320" role="img" aria-labelledby="t d">
<title id="t">Burger Shot Spooky</title><desc id="d">Emblema de hamburguesa con calavera inspirado en Halloween y Día de Muertos</desc>
<defs><radialGradient id="bg" cx="50%" cy="42%" r="62%"><stop offset="0" stop-color="#5d183c"/><stop offset="1" stop-color="#171016"/></radialGradient><linearGradient id="bun" x1="0" y1="0" x2="1" y2="1"><stop stop-color="#ffb33d"/><stop offset="1" stop-color="#e65a1f"/></linearGradient></defs>
<circle cx="160" cy="160" r="148" fill="url(#bg)" stroke="#f39a2d" stroke-width="8"/>
<g opacity=".95" fill="#f39a2d"><circle cx="48" cy="82" r="13"/><circle cx="272" cy="82" r="13"/><circle cx="42" cy="226" r="10"/><circle cx="278" cy="226" r="10"/></g>
<g transform="translate(50 46)">
<path d="M20 92c6-54 43-79 90-79s84 25 90 79H20Z" fill="url(#bun)" stroke="#2a141a" stroke-width="7"/>
<g fill="#ffe09d"><ellipse cx="70" cy="45" rx="5" ry="2" transform="rotate(-18 70 45)"/><ellipse cx="109" cy="31" rx="5" ry="2" transform="rotate(8 109 31)"/><ellipse cx="145" cy="48" rx="5" ry="2" transform="rotate(-12 145 48)"/></g>
<path d="M19 101h182l-12 23H31Z" fill="#8f2b1e"/><path d="M28 126h164l-13 17H41Z" fill="#f5b72e"/><path d="M24 148h172l-10 18H34Z" fill="#6d301c"/>
<path d="M32 172h156c0 31-27 51-78 51S32 203 32 172Z" fill="url(#bun)" stroke="#2a141a" stroke-width="7"/>
<g transform="translate(75 73)">
<path d="M35 3c30 0 53 22 53 51 0 18-9 31-20 39v20H54v-14H43v14H29V94C16 86 7 72 7 54 7 25 9 3 35 3Z" fill="#f4e5c7" stroke="#25151d" stroke-width="6"/>
<ellipse cx="29" cy="50" rx="10" ry="13" fill="#25151d"/><ellipse cx="64" cy="50" rx="10" ry="13" fill="#25151d"/><path d="M46 61l-6 12h12Z" fill="#25151d"/><path d="M27 82c13 8 27 8 40 0" fill="none" stroke="#25151d" stroke-width="5" stroke-linecap="round"/>
<g fill="#e65a1f"><circle cx="16" cy="32" r="4"/><circle cx="76" cy="32" r="4"/></g>
</g></g>
<text x="160" y="282" text-anchor="middle" fill="#fff2d6" font-family="Arial Black,Arial,sans-serif" font-size="26" letter-spacing="2">BURGER SHOT</text>
<text x="160" y="304" text-anchor="middle" fill="#f39a2d" font-family="Arial,sans-serif" font-size="11" letter-spacing="3">EDICIÓN SPOOKY</text>
</svg>