<svg xmlns="http://www.w3.org/2000/svg" viewBox="0 0 120 150"><defs><linearGradient id="bone" x2=".8" y2="1"><stop stop-color="#fff4db"/><stop offset="1" stop-color="#d7bc87"/></linearGradient></defs><path d="M60 8C29 8 12 27 13 57c0 18 6 29 17 36v28c0 11 10 21 30 21s30-10 30-21V93c11-7 17-18 17-36C108 27 91 8 60 8Z" fill="url(#bone)" stroke="#795731" stroke-width="2"/><g fill="#d37129"><path d="m60 20 6 10-6 8-6-8z"/><path d="m45 21 7 9-7 3-6-7zm30 0-7 9 7 3 6-7z"/><circle cx="60" cy="15" r="2"/></g><g fill="#754a87"><circle cx="36" cy="61" r="21"/><circle cx="84" cy="61" r="21"/></g><g fill="#dd9744"><circle cx="51.00" cy="61.00" r="4"/><circle cx="46.61" cy="71.61" r="4"/><circle cx="36.00" cy="76.00" r="4"/><circle cx="25.39" cy="71.61" r="4"/><circle cx="21.00" cy="61.00" r="4"/><circle cx="25.39" cy="50.39" r="4"/><circle cx="36.00" cy="46.00" r="4"/><circle cx="46.61" cy="50.39" r="4"/><circle cx="99.00" cy="61.00" r="4"/><circle cx="94.61" cy="71.61" r="4"/><circle cx="84.00" cy="76.00" r="4"/><circle cx="73.39" cy="71.61" r="4"/><circle cx="69.00" cy="61.00" r="4"/><circle cx="73.39" cy="50.39" r="4"/><circle cx="84.00" cy="46.00" r="4"/><circle cx="94.61" cy="50.39" r="4"/></g><g fill="#24192f"><ellipse cx="36" cy="62" rx="10" ry="12"/><ellipse cx="84" cy="62" rx="10" ry="12"/><path d="m60 82-8 14q8-5 16 0z"/></g><g stroke="#b87d49" fill="none" stroke-width="2"><path d="M20 90q8 14 15 4m-11 6q6 6 12 1M100 90q-8 14-15 4m11 6q-6 6-12 1"/><path d="M38 119q22 14 44 0M43 115v15m11-12v15m12-15v15m11-18v15"/></g><g fill="#60968e"><path d="M37 40q-10-12-15-5 7 0 10 8zm46 0q10-12 15-5-7 0-10 8z"/><circle cx="46" cy="106" r="3"/><circle cx="74" cy="106" r="3"/></g><path d="M55 102q5 7 10 0" stroke="#ad457a" stroke-width="3" fill="none"/></svg>