<svg xmlns="http://www.w3.org/2000/svg" viewBox="0 0 120 108"><defs><mask id="cut"><path d="M5 2h110v88l-11 7-8-3-12 8-10-4-14 9-14-9-10 4-12-8-8 3-11-7Z" fill="white"/><path d="M14 11h92v70H14z" fill="none" stroke="black" stroke-width="2" stroke-dasharray="3 4"/><path d="m60 23 7 10-7 6-7-6zM60 78l7-10-7-6-7 6zM31 49l10-7 6 7-6 7zM89 49l-10-7-6 7 6 7z" fill="black"/><g fill="black"><ellipse cx="60" cy="44" rx="5" ry="12"/><ellipse cx="60" cy="54" rx="5" ry="12"/><ellipse cx="55" cy="49" rx="12" ry="5"/><ellipse cx="65" cy="49" rx="12" ry="5"/></g><circle cx="60" cy="49" r="5" fill="white"/><path d="m22 26 3 4-3 4-3-4zm76 0 3 4-3 4-3-4zM22 69l3 4-3 4-3-4zm76 0 3 4-3 4-3-4z" fill="black"/></mask></defs><rect width="120" height="108" fill="#bd8c5a" mask="url(#cut)"/></svg>